# xmcd CD database file
#
# Track frame offsets:
#	150
#	22754
#	41582
#	59462
#	74684
#	92456
#	117931
#	140368
#	154202
#	169703
#	184103
#	199541
#	222146
#	254810
#
# Disc length: 3683 seconds
#
# Revision: 0
# Processed by: cddbd v1.4PL0 Copyright (c) Steve Scherf et al.
# Submitted via: CDex 1.40Release
#
DISCID=c50e610e
DTITLE=The Keller Brothers Band - Live At Antone's
DYEAR=1998
DGENRE=Blues
TTITLE0=Memphis
TTITLE1=Sawed Off Shotgun
TTITLE2=Blow Wind Blow
TTITLE3=Misery
TTITLE4=The Day You Walked
TTITLE5=All Your Love
TTITLE6=Guitar Cha Cha
TTITLE7=Raise Your Window
TTITLE8=Time
TTITLE9=Trick Bag
TTITLE10=I'm On Fire
TTITLE11=It Takes Time
TTITLE12=Can't Lose What You Ain't Never Had
TTITLE13=The Tremble
EXTD=YEAR: 1998 ID3G: 0
EXTT0=
EXTT1=
EXTT2=
EXTT3=
EXTT4=
EXTT5=
EXTT6=
EXTT7=
EXTT8=
EXTT9=
EXTT10=
EXTT11=
EXTT12=
EXTT13=
PLAYORDER=
